<svg width="200" height="200" viewBox="0 0 200 200" fill="none" xmlns="http://www.w3.org/2000/svg">
<path d="M59.322 36.7232H87.5706V93.2203H115.819C115.819 98.8074 114.162 104.269 111.058 108.914C107.954 113.56 103.543 117.181 98.3809 119.319C93.2191 121.457 87.5393 122.016 82.0596 120.926C76.5799 119.836 71.5465 117.146 67.5959 113.195C63.6452 109.244 60.9548 104.211 59.8648 98.7314C59.5003 96.8989 59.3203 95.0441 59.322 93.1937V36.7232Z" fill="#400EDC"/>
<path d="M115.819 93.2203V36.7232C131.42 36.7232 144.068 49.3705 144.068 64.9717V121.469H115.819V93.2203Z" fill="#400EDC"/>
<path fill-rule="evenodd" clip-rule="evenodd" d="M0 0V101.695C0 102.077 0.00379617 102.459 0.0113529 102.839L0 102.825V200L56.2012 158.191C56.2998 158.192 56.3985 158.192 56.4972 158.192H200V56.4972C200 25.2946 174.705 0 143.503 0H0ZM143.503 15.8192H15.8192V101.695C15.8192 124.161 34.0314 142.373 56.4972 142.373H184.181V56.4972C184.181 34.0314 165.969 15.8192 143.503 15.8192Z" fill="#400EDC"/>
</svg>
